# xmcd
#
# Track frame offsets:
#	150
#	4373
#	27098
#	46265
#	71194
#	97334
#	117626
#	134797
#	158276
#	181274
#
# Disc length: 2686 seconds
#
# Revision: 17
# Processed by: cddbd v1.5.2PL0 Copyright (c) Steve Scherf et al.
# Submitted via: Jack! The Knife 20 Magnifico
#
DISCID=8c0a7c0a
DTITLE=Voivod - Nothingface
DYEAR=1989
DGENRE=Metal
TTITLE0=Intro
TTITLE1=The Unknown Knows
TTITLE2=Nothingface
TTITLE3=Astronomy Domine
TTITLE4=Missing Sequences
TTITLE5=X-Ray Mirror
TTITLE6=Inner Combustion
TTITLE7=Pre-Ignition
TTITLE8=Into My Hypercube
TTITLE9=Sub-Effect
EXTD=Glen Robinson
EXTT0=Away, Piggy, Blacky
EXTT1=Snake, Away, Piggy, Blacky
EXTT2=Snake, Away, Piggy, Blacky
EXTT3=Syd Barrett
EXTT4=Snake, Away, Piggy, Blacky
EXTT5=Snake, Away, Piggy, Blacky
EXTT6=Snake, Away, Piggy, Blacky
EXTT7=Snake, Away, Piggy, Blacky
EXTT8=Snake, Away, Piggy, Blacky
EXTT9=Snake, Away, Piggy, Blacky
PLAYORDER=
